<svg id="Calque_1" data-name="Calque 1" xmlns="http://www.w3.org/2000/svg" viewBox="0 0 2204.39 491.29"><defs><style>.cls-1{fill:#ba3e33;}</style></defs><path class="cls-1" d="M371.87,419.59c-2.21,0-4.35,0-6.56-.12a180.33,180.33,0,0,1-62.06-347A178.85,178.85,0,0,1,371.65,59c2.21,0,4.36,0,6.57.12a180.33,180.33,0,0,1,62,347,178.81,178.81,0,0,1-68.4,13.49m-.22-340.93A160,160,0,0,0,211.23,233.54C208.06,322.05,277.49,396.65,366,399.82c2,.07,3.89.11,5.86.11a160.64,160.64,0,0,0,5.64-321.17C375.54,78.69,373.62,78.66,371.65,78.66Z"/><path class="cls-1" d="M195.22,214s-37.39,1.45-77.65-34.21c0,0-6.36-6.8-8.13-3.06s-2,6.81,5.82,13,6.83,9.3,6.83,9.3l-10-2.78-8.58-4.95s-8.41-7.15-13.46-2.57-2.56,6.84.3,8.31,11,4.34,16.67,6.74a65.59,65.59,0,0,0,9.09,3.24,4.07,4.07,0,0,1,3,2.44c.75,2-1.48,1.58-1.48,1.58s-7-2.43-8.11-2.38-12.52-3.25-16.58-4.37c-4.7-1.3-11.87-.72-11.87-.72s-5,5.91.32,8.77c3.93,2.12,27,5.91,30.11,8.85,0,0-19,1.45-22.82,2.74l-5.7,1s-3,.23-2.9,3c.18,5,2.43,4.42,4.17,5.77,1.13.87,4.35,3.85,39.63,2.21l-8.45,9.41s-1.31,5.46,2.86,5.31,8.06,1,12.5-3.15,50.33-14,62.79-7S195.22,214,195.22,214"/><path class="cls-1" d="M550.18,223.32l29.46-1.18s15.13-6.29,18.55-16.15,7-23.08,10.36-25.4,10.24-5.79,9.27.47-5.16,20.86-5.16,20.86,1.64,3.43,4.09,1.26,11.16-12.24,14.5-14,11.52-1.32,10.2,3.39-9.6,10.31-9.6,10.31l-8,9.06,2.64,3.19s11-5,14.27-6.54,6.23-5.42,8.53-4,5.59,4.87-.46,9.16-11.67,8.39-13,9.28-3.44,4,2.44,3,27.28-4.37,24.5,3-14.18,6.75-14.18,6.75l-12.79.64-4.31-.22a31.53,31.53,0,0,1-4.28,3.45c-1.56.88-2.67,1.59-2.67,1.59s12.25,10,14.13,15.43-.47,9.35-2.16,8.49-15.12-8.79-15.12-8.79-2.92-6.26-12.22-6.16-60.44,2.3-60.44,2.3l1.48-29.18"/><path class="cls-1" d="M537.13,238.64A22.7,22.7,0,0,0,531,234c-4.44-2.47-10.68-4.75-18.56-6.77-15.59-4-36.36-6.71-58.46-7.62-5.29-.22-10.59-.33-15.75-.33a303.12,303.12,0,0,0-31.06,1.49,331.75,331.75,0,0,0,27.61-37.82c11.84-18.69,21.45-37.29,27-52.39,2.82-7.63,4.5-14.06,5-19.11a22.7,22.7,0,0,0-.36-7.68A10.67,10.67,0,0,0,461.92,97a10,10,0,0,0-5.44-1.52c-3.76,0-8.09,1.83-13.24,5.6a106.28,106.28,0,0,0-14.36,13.2c-10.54,11.31-22.28,26.91-33.07,43.93a330.15,330.15,0,0,0-22.4,41.11,330.54,330.54,0,0,0-18.94-42.81c-9.51-18.15-20.09-34.86-29.79-47a101.79,101.79,0,0,0-13.36-14.29c-5-4.18-9.24-6.21-13.09-6.21a9.75,9.75,0,0,0-4.61,1.11,10.63,10.63,0,0,0-5.11,6.34,22.64,22.64,0,0,0-1,7.62c.07,5.08,1.22,11.62,3.41,19.46,4.33,15.5,12.36,34.84,22.63,54.44A332.12,332.12,0,0,0,338,217.88a329,329,0,0,0-46.55-5c-5.29-.22-10.59-.33-15.75-.33-18.7,0-35.88,1.46-48.38,4.11a62.09,62.09,0,0,0-15.51,5.06,19.43,19.43,0,0,0-5.4,4,10.45,10.45,0,0,0-2.92,6.68,10.68,10.68,0,0,0,2.93,7.59,23.22,23.22,0,0,0,6.11,4.66c4.44,2.47,10.68,4.75,18.56,6.77,15.6,4,36.36,6.71,58.46,7.63,5.29.21,10.59.32,15.76.32a302.92,302.92,0,0,0,31.05-1.49,331.75,331.75,0,0,0-27.61,37.82c-11.84,18.69-21.44,37.3-27,52.39-2.83,7.63-4.51,14.06-5,19.12a22.92,22.92,0,0,0,.36,7.67,10.68,10.68,0,0,0,4.56,6.74,10,10,0,0,0,5.45,1.52c3.76,0,8.09-1.83,13.23-5.59a106.44,106.44,0,0,0,14.36-13.21c10.54-11.31,22.29-26.91,33.07-43.93a330.15,330.15,0,0,0,22.4-41.11,331.46,331.46,0,0,0,18.95,42.81c9.5,18.15,20.08,34.86,29.78,47.05a101.2,101.2,0,0,0,13.37,14.29c5,4.18,9.24,6.21,13.08,6.21a9.82,9.82,0,0,0,4.62-1.11,10.62,10.62,0,0,0,5.1-6.34,22.84,22.84,0,0,0,1-7.62c-.08-5.08-1.23-11.62-3.42-19.45-4.33-15.51-12.36-34.85-22.63-54.44a331.5,331.5,0,0,0-24.4-40,329.14,329.14,0,0,0,46.55,5c5.29.22,10.59.33,15.76.33,18.7,0,35.88-1.46,48.38-4.11a62.23,62.23,0,0,0,15.51-5.06,19.38,19.38,0,0,0,5.4-4,10.48,10.48,0,0,0,2.92-6.68,10.71,10.71,0,0,0-2.94-7.58"/><path class="cls-1" d="M796.32,356a12.24,12.24,0,0,1-12.8-12.8V136.39a12.24,12.24,0,0,1,12.8-12.8h53.56q25.59,0,46.87,8.48a106.33,106.33,0,0,1,60.56,60.86q8.34,21.13,8.34,46.72t-8.34,46.87a106,106,0,0,1-60.56,61Q875.48,356,849.88,356Zm12.79-22.91h40.77q26.79,0,47.17-12.06a85.63,85.63,0,0,0,32-33.18q11.61-21.12,11.61-48.21T929,191.44a84.69,84.69,0,0,0-32-33q-20.38-11.9-47.17-11.91H809.11Z"/><path class="cls-1" d="M1081.41,357.5q-22.62,0-40.47-10.86A78.83,78.83,0,0,1,1012.66,317q-10.41-18.75-10.41-42.26,0-23.81,10.86-42.56a80,80,0,0,1,29.61-29.61q18.75-10.86,42-10.86,23.5,0,42.11,10.86a80.39,80.39,0,0,1,29.46,29.61q10.86,18.75,11.16,42.56l-10.12,5.06q0,22-10,39.58a75.1,75.1,0,0,1-27.09,27.82Q1103.13,357.51,1081.41,357.5Zm3.57-22.62q16.66,0,29.61-7.89a57.17,57.17,0,0,0,20.53-21.57,62.11,62.11,0,0,0,7.59-30.65q0-17.26-7.59-30.8a58.76,58.76,0,0,0-20.53-21.58q-12.94-8-29.61-8a55.91,55.91,0,0,0-29.61,8,59.08,59.08,0,0,0-21,21.58q-7.74,13.54-7.74,30.8a61.15,61.15,0,0,0,7.74,30.65,57.48,57.48,0,0,0,21,21.57A56.73,56.73,0,0,0,1085,334.88ZM1154.91,356a13.31,13.31,0,0,1-9.37-3.42,11.75,11.75,0,0,1-3.72-9.08v-49.1l5.65-25.89,19.94,6.25v68.74a12,12,0,0,1-3.57,9.08A12.4,12.4,0,0,1,1154.91,356Z"/><path class="cls-1" d="M1224.55,356q-6,0-9.23-3.27t-3.27-9.23V205.73q0-6,3.27-9.23t9.23-3.27q6,0,9.08,3.27t3.12,9.23V343.51q0,6-3.12,9.23T1224.55,356Zm-1.49-100.88a65.71,65.71,0,0,1,9.38-32.59,64.59,64.59,0,0,1,23.21-22.77,62.29,62.29,0,0,1,31.69-8.33q15.18,0,23.07,4.47t5.8,12.2a8.83,8.83,0,0,1-3.72,5.95,12,12,0,0,1-6.55,1.78,68.39,68.39,0,0,1-8.48-.59q-17.57-2.08-31.1,2.23t-21.57,14.14q-8,9.81-8,23.51Z"/><path class="cls-1" d="M1427.8,147.1a11.67,11.67,0,0,1-8.63-3.27,11.3,11.3,0,0,1-3.27-8.34,11.24,11.24,0,0,1,11.9-11.9h162.79a11.24,11.24,0,0,1,11.9,11.9,11.3,11.3,0,0,1-3.27,8.34,11.69,11.69,0,0,1-8.63,3.27ZM1509.05,356a12.7,12.7,0,0,1-12.8-12.8V123.59h25.59V343.21a12.63,12.63,0,0,1-3.57,9.08A12.22,12.22,0,0,1,1509.05,356Z"/><path class="cls-1" d="M1647.43,163.76a16.39,16.39,0,0,1-12.2-5.2,17.09,17.09,0,0,1-5.06-12.35,15.76,15.76,0,0,1,5.21-12.2,17.61,17.61,0,0,1,24.1,0,15.79,15.79,0,0,1,5.21,12.2,17.14,17.14,0,0,1-5.06,12.35A16.4,16.4,0,0,1,1647.43,163.76Zm.3,192.25a12.8,12.8,0,0,1-9.23-3.42q-3.57-3.42-3.57-9.38V206q0-5.94,3.57-9.37a12.8,12.8,0,0,1,9.23-3.42,12.27,12.27,0,0,1,9.07,3.42q3.42,3.42,3.43,9.37V343.21q0,6-3.43,9.38A12.27,12.27,0,0,1,1647.73,356Z"/><path class="cls-1" d="M1708.14,220.9a11.46,11.46,0,0,1-8.48-3.12,10.3,10.3,0,0,1-3.13-7.59,10.69,10.69,0,0,1,3.13-7.89,11.46,11.46,0,0,1,8.48-3.12h72.91a11.46,11.46,0,0,1,8.48,3.12,10.73,10.73,0,0,1,3.13,7.89,10.34,10.34,0,0,1-3.13,7.59,11.46,11.46,0,0,1-8.48,3.12ZM1737.9,356a12.12,12.12,0,0,1-8.93-3.57,12.48,12.48,0,0,1-3.57-9.23V190a78,78,0,0,1,7.14-33.63,55.41,55.41,0,0,1,21.73-24.1q14.57-8.93,36.6-8.63a99.93,99.93,0,0,1,13.69,1,108,108,0,0,1,15.47,3.42q7.74,2.08,11.46,5.36a11,11,0,0,1,3.72,8.63q0,6.56-4,8.78c-2.67,1.49-6.4,1.54-11.16.15a106.48,106.48,0,0,0-15.32-3.42,95.56,95.56,0,0,0-13.54-1.05q-19.05,0-29.91,10.72t-10.86,32.14V343.21a12.48,12.48,0,0,1-3.57,9.23A12.12,12.12,0,0,1,1737.9,356Zm122.31,0a37.26,37.26,0,0,1-22-6.7,45.41,45.41,0,0,1-15-18.59q-5.51-11.91-5.51-27.38V136.09a12,12,0,0,1,3.57-9.08,12.81,12.81,0,0,1,9.23-3.42,11.89,11.89,0,0,1,8.78,3.42,12.29,12.29,0,0,1,3.42,9.08V303.34q0,12.2,4.91,20.08t12.65,7.89h7.44a9.79,9.79,0,0,1,7.74,3.42,12.93,12.93,0,0,1,3,8.78,11,11,0,0,1-4.31,9.08q-4.32,3.42-11.16,3.42Z"/><path class="cls-1" d="M1975.38,357.5q-24.41,0-43.15-10.57a76.77,76.77,0,0,1-29.47-29.31q-10.71-18.75-10.71-42.85,0-24.4,10.12-43A76.09,76.09,0,0,1,1930,202.45q17.7-10.71,40.92-10.71,22.62,0,39.43,10.27a68.43,68.43,0,0,1,25.9,28.42q9.06,18.15,9.07,41.36A10.82,10.82,0,0,1,2042,280a11.6,11.6,0,0,1-8.33,3.12h-124.4V262.57h125.88l-12.79,8.92a65,65,0,0,0-6-29.46,48.72,48.72,0,0,0-17.86-20.53q-11.61-7.44-27.68-7.44-17,0-29.61,7.74A50.43,50.43,0,0,0,1922,243.37q-6.69,13.84-6.7,31.4T1923,306a55.88,55.88,0,0,0,21.28,21.43q13.53,7.74,31.1,7.74a64.42,64.42,0,0,0,20.68-3.57q10.56-3.57,16.81-8.93a14.12,14.12,0,0,1,8.19-2.83,10.47,10.47,0,0,1,7.59,2.53q4.45,3.87,4.61,8.34t-4,7.73q-9.83,8.34-25,13.69A86.75,86.75,0,0,1,1975.38,357.5Z"/><path class="cls-1" d="M2074.77,220.9a11.58,11.58,0,0,1-8.33-3.12,10.06,10.06,0,0,1-3.27-7.59,10.43,10.43,0,0,1,3.27-7.89,11.58,11.58,0,0,1,8.33-3.12h73.51a11.58,11.58,0,0,1,8.33,3.12,10.47,10.47,0,0,1,3.27,7.89,10.1,10.1,0,0,1-3.27,7.59,11.58,11.58,0,0,1-8.33,3.12ZM2146.2,356a51.69,51.69,0,0,1-46.88-28,61.58,61.58,0,0,1-7-29.47V153.94a12.38,12.38,0,0,1,3.42-8.92,12,12,0,0,1,9.08-3.57,12.2,12.2,0,0,1,12.5,12.49V298.57q0,14,8.18,23.22A26.46,26.46,0,0,0,2146.2,331h8.92a10.51,10.51,0,0,1,8,3.57,12.72,12.72,0,0,1,3.27,8.93,11.33,11.33,0,0,1-4,9.08,15.26,15.26,0,0,1-10.26,3.42Z"/></svg>